<?xml version="1.0" encoding="UTF-8" standalone="no"?>
<!-- Created with Inkscape (http://www.inkscape.org/) -->
<svg xmlns:dc="http://purl.org/dc/elements/1.1/" xmlns:cc="http://creativecommons.org/ns#" xmlns:rdf="http://www.w3.org/1999/02/22-rdf-syntax-ns#" xmlns:svg="http://www.w3.org/2000/svg" xmlns="http://www.w3.org/2000/svg" xmlns:xlink="http://www.w3.org/1999/xlink" xmlns:sodipodi="http://sodipodi.sourceforge.net/DTD/sodipodi-0.dtd" xmlns:inkscape="http://www.inkscape.org/namespaces/inkscape" width="180" height="180" id="svg2" sodipodi:version="0.32" inkscape:version="0.46" version="1.0" sodipodi:docname="coat_of_arms_military-of-kazakhstan2.svg" inkscape:output_extension="org.inkscape.output.svg.inkscape">
  <defs id="defs4">
    <inkscape:perspective sodipodi:type="inkscape:persp3d" inkscape:vp_x="0 : 526.18109 : 1" inkscape:vp_y="0 : 1000 : 0" inkscape:vp_z="744.09448 : 526.18109 : 1" inkscape:persp3d-origin="372.04724 : 350.78739 : 1" id="perspective10"/>
    <inkscape:perspective id="perspective2390" inkscape:persp3d-origin="372.04724 : 350.78739 : 1" inkscape:vp_z="744.09448 : 526.18109 : 1" inkscape:vp_y="0 : 1000 : 0" inkscape:vp_x="0 : 526.18109 : 1" sodipodi:type="inkscape:persp3d"/>
    <path id="uorn" d="M 0,-35.598637 C 0,-35.598637 4.7530782,-39.583055 6.3671251,-37.584572 C 8.9631893,-34.370174 -1.6148703,-18.359773 -1.6148703,-12.721308 C -1.6148703,-3.4663271 4.5753036,-0.9495749 12.219049,0.37164156 C 17.347761,1.258136 25.7,0 25.7,0 C 24.127458,-2.1078802 23.104712,-2.7289755 20.455023,-2.8975143 C 23.404894,-4.4252648 26.408867,-7.7416056 26.408867,-12.90486 C 26.408867,-20.866568 23.123385,-24.147608 23.123385,-33.123391 C 23.123385,-38.102574 27.216302,-44.441008 27.216302,-44.441008 C 19.982003,-43.718733 16.396176,-37.036315 18.436436,-31.696034 C 17.284843,-31.530555 16.239265,-31.78914 15.341267,-32.638042 C 14.811816,-31.157744 15.647621,-29.439553 16.767224,-27.959255 C 15.865491,-27.478574 15.203266,-27.766834 13.767214,-28.062576 C 13.903389,-26.537421 14.81955,-24.917108 17.060859,-23.391953 C 10.556777,-25.076417 6.5546382,-20.554385 6.5546382,-15.820438 C 6.5546382,-12.244602 9.0665766,-9.6818822 11.521697,-9.6818822 C 12.315163,-9.6818822 13.480714,-10.007886 14.138278,-10.497481 C 14.601801,-9.5133367 14.362949,-8.1961425 13.885459,-7.2119982 C 15.685071,-7.686535 16.827225,-8.7527235 16.01413,-10.971863 C 17.396346,-11.098529 18.495865,-11.564431 19.243871,-12.452148 C 18.486057,-13.420288 17.336466,-13.977953 16.01413,-13.932434 C 17.020519,-16.004247 15.898976,-17.164115 14.264687,-18.104209 C 14.264687,-18.104209 15.304002,-13.932461 12.649817,-13.932461 C 11.456315,-13.932461 10.368847,-14.320046 10.368847,-16.074657 C 10.368847,-17.602563 11.707809,-19.71908 14.802977,-19.584507 C 17.898145,-19.449935 20.407444,-17.455622 20.407444,-12.526793 C 20.407444,-7.9800039 16.731198,-5.7186754 11.886919,-5.5726384 C 7.5180943,-5.4380659 4.2207273,-7.7989729 4.2207273,-12.294502 C 4.2207273,-18.277988 12.879547,-31.9162 12.879547,-37.248961 C 12.879547,-41.249522 9.273139,-43.482674 5.7444019,-43.482674 C 1.1689361,-43.482674 -2.6914504,-38.96295 -2.6914504,-38.96295 L 0,-35.598637 z"/>
    <path id="orn" d="M -1,15 C -1,5 8,-0.14 15.072121,-0.14 C 24.6,-0.14 29.67324,5.5429809 29.67324,12.982057 C 29.67324,17.199 28.89871,19.84505 26.949517,23.881429 C 26.949517,23.881429 11.232327,56.486937 5.1137557,69.098798 C 4.3506632,70.671717 4.1044619,72.462248 4.1044619,75.087275 C 4.1044619,79.141224 8.0460365,82.454615 12.178813,82.556049 C 15.946272,82.650047 20.051305,79.052198 20.051305,74.952702 C 20.051305,69.973065 17.461945,67.753072 14.802977,67.753072 C 11.531226,67.753072 10.227511,69.094843 10.227511,71.38653 C 10.227511,72.983378 11.000593,73.674263 12.111527,73.674263 C 14.91779,73.674263 14.130114,69.906232 14.130114,69.906232 C 15.523896,70.210636 16.668963,71.631261 16.01413,73.405118 C 17.033704,73.631586 17.988792,74.165521 18.739224,75.019988 C 17.986945,75.74755 17.124043,76.309176 16.01413,76.500286 C 16.67135,78.664697 15.793133,79.722271 13.894613,80.167388 C 14.277724,79.334786 14.290906,78.568919 14.163757,77.846011 C 11.174887,78.693888 6.5940534,77.344608 6.5940534,72.193965 C 6.5940534,67.08021 10.151694,62.774364 16.821565,63.850469 C 15.234698,63.093596 14.427615,61.544954 14.264687,59.813294 C 15.475839,60.284298 16.821565,60.351584 16.821565,60.351584 C 16.041676,58.979728 14.958426,57.79719 15.004835,55.103255 C 16.241582,55.664112 17.389899,56.702686 18.974725,56.045263 C 16.487428,51.162666 19.543319,44.446508 27.318221,42.857157 C 24.472701,46.184414 23.079188,49.777263 23.079188,53.353813 C 23.079188,64.945481 26.308927,66.893455 26.308927,74.952702 C 26.308927,78.32444 24.571421,81.965678 21.127885,84.440065 L 21.127885,84.305492 C 23.404326,84.912519 24.861687,86.031471 25.7,87.55 C 20.49988,89.02142 12.941391,88.993633 8.8817862,87.40066 C 4.2161824,86.86237 0.95971684,83.290648 0,81.479469 C -0.95971684,79.66829 -2.8236958,73.114579 0,67.214782 C 3.0903362,60.75787 17.661431,29.937676 22.204465,20.248974 C 23.168066,18.19395 23.752049,16.014637 23.752049,13.65492 C 23.752049,7.7199823 18.301863,5.6478554 15.206695,5.6478554 C 11.50595,5.6478554 7.7379198,8.4603205 7.7379198,11.972764 C 7.7379198,14.198379 8.9490725,15.538935 10.698515,15.538935 C 14.881836,15.538935 14.627762,11.98893 13.793683,9.7523172 C 16.397163,10.919875 17.910448,13.004341 17.494428,15.202504 C 18.968382,15.403909 20.371469,16.101382 21.666175,17.557523 C 20.647466,18.840724 19.405016,19.810686 17.494428,19.845256 C 18.328868,23.25524 16.040174,24.697462 13.793683,25.497302 C 14.504358,22.994613 14.970869,20.114401 10.698515,20.114401 C 7.5835529,20.114401 5.1305772,19.576111 3.7007442,17.557523 C 3.6166365,20.248973 3.3643129,30.880202 3.3643129,30.880202 C 3.184883,34.875197 8.7247852,34.760959 12.2461,33.571652 C 10.917154,38.173425 8.1918319,40.661436 1.8840153,40.031134 C 3.4147776,40.670353 5.0464694,42.107348 5.0464694,44.875744 C 5.0464694,48.622585 2,52.772886 0,54 L -1,15 z"/>
    <path id="be" d="M 0,-76.45 C 4,-76.5 5.5,-79 5.5,-82 C 5.5,-86 0,-105.05 0,-105.05 C 0,-105.05 -5.5,-86 -5.5,-82 C -5.5,-79 -4,-76.45 0,-76.45 L 0,-76.45 z"/>
    <inkscape:perspective id="perspective2468" inkscape:persp3d-origin="1000 : 333.33333 : 1" inkscape:vp_z="2000 : 500 : 1" inkscape:vp_y="0 : 1000 : 0" inkscape:vp_x="0 : 500 : 1" sodipodi:type="inkscape:persp3d"/>
    <inkscape:perspective id="perspective3514" inkscape:persp3d-origin="372.04724 : 350.78739 : 1" inkscape:vp_z="744.09448 : 526.18109 : 1" inkscape:vp_y="0 : 1000 : 0" inkscape:vp_x="0 : 526.18109 : 1" sodipodi:type="inkscape:persp3d"/>
    <inkscape:perspective id="perspective2475" inkscape:persp3d-origin="372.04724 : 350.78739 : 1" inkscape:vp_z="744.09448 : 526.18109 : 1" inkscape:vp_y="0 : 1000 : 0" inkscape:vp_x="0 : 526.18109 : 1" sodipodi:type="inkscape:persp3d"/>
    <inkscape:perspective id="perspective2477" inkscape:persp3d-origin="372.04724 : 350.78739 : 1" inkscape:vp_z="744.09448 : 526.18109 : 1" inkscape:vp_y="0 : 1000 : 0" inkscape:vp_x="0 : 526.18109 : 1" sodipodi:type="inkscape:persp3d"/>
    <inkscape:perspective id="perspective2479" inkscape:persp3d-origin="372.04724 : 350.78739 : 1" inkscape:vp_z="744.09448 : 526.18109 : 1" inkscape:vp_y="0 : 1000 : 0" inkscape:vp_x="0 : 526.18109 : 1" sodipodi:type="inkscape:persp3d"/>
  </defs>
  <sodipodi:namedview id="base" pagecolor="#ffffff" bordercolor="#666666" borderopacity="1.0" gridtolerance="10000" guidetolerance="10" objecttolerance="10" inkscape:pageopacity="0.0" inkscape:pageshadow="2" inkscape:zoom="2.9596211" inkscape:cx="160.40553" inkscape:cy="83.435601" inkscape:document-units="px" inkscape:current-layer="layer1" showgrid="false" showguides="true" inkscape:guide-bbox="true" inkscape:window-width="1670" inkscape:window-height="966" inkscape:window-x="0" inkscape:window-y="27">
    <sodipodi:guide orientation="1,0" position="90,179.27711" id="guide2466"/>
    <sodipodi:guide orientation="0,1" position="0.171875,90" id="guide2468"/>
  </sodipodi:namedview>
  <metadata id="metadata7">
    <rdf:RDF>
      <cc:Work rdf:about="">
        <dc:format>image/svg+xml</dc:format>
        <dc:type rdf:resource="http://purl.org/dc/dcmitype/StillImage"/>
      </cc:Work>
    </rdf:RDF>
  </metadata>
  <g inkscape:label="Layer 1" inkscape:groupmode="layer" id="layer1">
    <rect style="opacity: 1; fill: none; fill-opacity: 1; fill-rule: nonzero; stroke: none; stroke-width: 0.3; stroke-linecap: round; stroke-linejoin: round; stroke-miterlimit: 4; stroke-dasharray: none; stroke-dashoffset: 0pt; stroke-opacity: 1;" id="rect2464" width="180" height="180" x="0" y="0"/>
    <g id="g2529" transform="matrix(1.08057, 0, 0, 1.08057, -7.73024, -6.85719)">
      <path sodipodi:nodetypes="cccccccccccccccc" id="path4035" d="M 87.247087,13.824246 C 88.530077,10.773137 92.460677,11.168178 93.482337,13.79371 L 111.27301,68.768886 L 169.00837,68.571044 C 172.31547,68.844646 173.11614,72.522355 171.16544,74.343295 L 124.20103,108.39536 L 142.1299,162.93364 C 143.28464,166.23799 139.78838,168.52985 137.28957,167.01479 L 90.508407,132.93166 L 44.093197,166.89573 C 41.349947,168.84262 38.132337,166.38629 38.814407,163.45739 L 56.761547,108.47219 L 9.6829872,74.513549 C 7.7258972,72.651226 8.6936472,68.958214 11.859827,68.761073 L 69.597127,68.822265 L 87.247087,13.824246 z" style="fill: rgb(255, 221, 85); fill-opacity: 1; fill-rule: evenodd; stroke: none; stroke-width: 1px; stroke-linecap: butt; stroke-linejoin: miter; stroke-opacity: 1;"/>
      <path transform="matrix(2.65675, -0.0744006, 0.0744006, 2.65675, 219.58, -31.2574)" inkscape:transform-center-y="-28.073845" inkscape:transform-center-x="-18.194663" d="M -32.357438,72.643544 L -50.232431,58.844602 L -68.822658,71.663713 L -61.222761,50.399477 L -79.159156,36.680444 L -56.587168,37.337365 L -49.082243,16.039425 L -42.731885,37.709661 L -20.157191,38.265843 L -38.804441,51.001864 L -32.357438,72.643544 z" inkscape:randomized="0" inkscape:rounded="0" inkscape:flatsided="false" sodipodi:arg2="1.5976602" sodipodi:arg1="0.96934162" sodipodi:r2="11.790262" sodipodi:r1="31.030365" sodipodi:cy="47.058594" sodipodi:cx="-49.915737" sodipodi:sides="5" id="path2396" style="fill: rgb(212, 0, 0); fill-opacity: 1; fill-rule: nonzero; stroke: none; stroke-width: 2; stroke-linecap: round; stroke-linejoin: miter; stroke-miterlimit: 4; stroke-dasharray: none; stroke-dashoffset: 0pt; stroke-opacity: 1;" sodipodi:type="star"/>
      <path style="fill: rgb(155, 17, 17); fill-opacity: 1; fill-rule: evenodd; stroke: none; stroke-width: 1px; stroke-linecap: butt; stroke-linejoin: miter; stroke-opacity: 1;" d="M 90.507167,128.81293 L 90.310297,97.117397 L 139.01395,164.14333 L 90.507167,128.81293 z" id="path3493" inkscape:transform-center-x="-24.068045" inkscape:transform-center-y="33.222162" sodipodi:nodetypes="cccc"/>
      <path style="fill: rgb(128, 0, 0); fill-opacity: 1; fill-rule: evenodd; stroke: none; stroke-width: 1px; stroke-linecap: butt; stroke-linejoin: miter; stroke-opacity: 1;" d="M 60.680367,107.19966 L 90.371197,97.492186 L 12.009937,72.089492 L 60.680367,107.19966 z" id="path3487" inkscape:transform-center-x="39.26608" inkscape:transform-center-y="-7.702591" sodipodi:nodetypes="cccc"/>
      <path sodipodi:nodetypes="cccc" inkscape:transform-center-y="-41.046637" inkscape:transform-center-x="-9.212545" id="path3485" d="M 108.85689,72.10703 L 90.371197,97.492186 L 90.371197,15.004381 L 108.85689,72.10703 z" style="fill: rgb(128, 0, 0); fill-opacity: 1; fill-rule: evenodd; stroke: none; stroke-width: 1px; stroke-linecap: butt; stroke-linejoin: miter; stroke-opacity: 1;"/>
      <path style="fill: rgb(85, 0, 0); fill-opacity: 1; fill-rule: evenodd; stroke: none; stroke-width: 1px; stroke-linecap: butt; stroke-linejoin: miter; stroke-opacity: 1;" d="M 120.27886,107.12918 L 90.371197,97.492186 L 168.86152,71.913209 L 120.27886,107.12918 z" id="path3489" inkscape:transform-center-x="-39.217817" inkscape:transform-center-y="-7.9084925" sodipodi:nodetypes="cccc"/>
      <path sodipodi:nodetypes="cccc" inkscape:transform-center-y="33.153396" inkscape:transform-center-x="-24.200817" id="path3495" d="M 120.28069,107.11496 L 90.371197,97.492186 L 139.02405,164.15714 L 120.28069,107.11496 z" style="fill: rgb(113, 23, 23); fill-opacity: 1; fill-rule: evenodd; stroke: none; stroke-width: 1px; stroke-linecap: butt; stroke-linejoin: miter; stroke-opacity: 1;"/>
      <path sodipodi:nodetypes="cccc" inkscape:transform-center-y="33.413577" inkscape:transform-center-x="24.131055" id="path3491" d="M 90.504847,128.81268 L 90.371197,97.492186 L 42.076997,164.24903 L 90.504847,128.81268 z" style="fill: rgb(85, 0, 0); fill-opacity: 1; fill-rule: evenodd; stroke: none; stroke-width: 1px; stroke-linecap: butt; stroke-linejoin: miter; stroke-opacity: 1;"/>
      <g style="fill: rgb(255, 221, 85); fill-opacity: 1;" transform="translate(-0.424763, 3.65621)" id="g3437">
        <use transform="matrix(0.28044, 0.055783, -0.055783, 0.28044, 90.7982, 93.836)" id="use3938" style="fill: rgb(255, 221, 85); fill-opacity: 1;" x="0" y="0" width="1000" height="500" xlink:href="#be"/>
        <use transform="matrix(0.264169, 0.109422, -0.109422, 0.264169, 90.7982, 93.836)" id="use3940" style="fill: rgb(255, 221, 85); fill-opacity: 1;" x="0" y="0" width="1000" height="500" xlink:href="#be"/>
        <use transform="matrix(0.237746, 0.158857, -0.158857, 0.237746, 90.7982, 93.836)" id="use3942" style="fill: rgb(255, 221, 85); fill-opacity: 1;" x="0" y="0" width="1000" height="500" xlink:href="#be"/>
        <use transform="matrix(0.202186, 0.202186, -0.202186, 0.202186, 90.7982, 93.836)" id="use3944" style="fill: rgb(255, 221, 85); fill-opacity: 1;" x="0" y="0" width="1000" height="500" xlink:href="#be"/>
        <use transform="matrix(0.158857, 0.237746, -0.237746, 0.158857, 90.7982, 93.836)" id="use3946" style="fill: rgb(255, 221, 85); fill-opacity: 1;" x="0" y="0" width="1000" height="500" xlink:href="#be"/>
        <use transform="matrix(0.109422, 0.264169, -0.264169, 0.109422, 90.7982, 93.836)" id="use3948" style="fill: rgb(255, 221, 85); fill-opacity: 1;" x="0" y="0" width="1000" height="500" xlink:href="#be"/>
        <use transform="matrix(0.055783, 0.28044, -0.28044, 0.055783, 90.7982, 93.836)" id="use3950" style="fill: rgb(255, 221, 85); fill-opacity: 1;" x="0" y="0" width="1000" height="500" xlink:href="#be"/>
        <use transform="matrix(0, 0.285934, -0.285934, 0, 90.7982, 93.836)" id="use3952" style="fill: rgb(255, 221, 85); fill-opacity: 1;" x="0" y="0" width="1000" height="500" xlink:href="#be"/>
        <use transform="matrix(-0.055783, 0.28044, -0.28044, -0.055783, 90.7982, 93.836)" id="use3954" style="fill: rgb(255, 221, 85); fill-opacity: 1;" x="0" y="0" width="1000" height="500" xlink:href="#be"/>
        <use transform="matrix(-0.109422, 0.264169, -0.264169, -0.109422, 90.7982, 93.836)" id="use3956" style="fill: rgb(255, 221, 85); fill-opacity: 1;" x="0" y="0" width="1000" height="500" xlink:href="#be"/>
        <use transform="matrix(-0.158857, 0.237746, -0.237746, -0.158857, 90.7982, 93.836)" id="use3958" style="fill: rgb(255, 221, 85); fill-opacity: 1;" x="0" y="0" width="1000" height="500" xlink:href="#be"/>
        <use transform="matrix(-0.202186, 0.202186, -0.202186, -0.202186, 90.7982, 93.836)" id="use3960" style="fill: rgb(255, 221, 85); fill-opacity: 1;" x="0" y="0" width="1000" height="500" xlink:href="#be"/>
        <use transform="matrix(-0.237746, 0.158857, -0.158857, -0.237746, 90.7982, 93.836)" id="use3962" style="fill: rgb(255, 221, 85); fill-opacity: 1;" x="0" y="0" width="1000" height="500" xlink:href="#be"/>
        <use transform="matrix(-0.264169, 0.109422, -0.109422, -0.264169, 90.7982, 93.836)" id="use3964" style="fill: rgb(255, 221, 85); fill-opacity: 1;" x="0" y="0" width="1000" height="500" xlink:href="#be"/>
        <use transform="matrix(-0.237746, -0.158857, 0.158857, -0.237746, 90.7982, 93.836)" id="use3974" style="fill: rgb(255, 221, 85); fill-opacity: 1;" x="0" y="0" width="1000" height="500" xlink:href="#be"/>
        <use transform="matrix(-0.202186, -0.202186, 0.202186, -0.202186, 90.7982, 93.836)" id="use3976" style="fill: rgb(255, 221, 85); fill-opacity: 1;" x="0" y="0" width="1000" height="500" xlink:href="#be"/>
        <use transform="matrix(-0.158857, -0.237746, 0.237746, -0.158857, 90.7982, 93.836)" id="use3978" style="fill: rgb(255, 221, 85); fill-opacity: 1;" x="0" y="0" width="1000" height="500" xlink:href="#be"/>
        <use transform="matrix(-0.109422, -0.264169, 0.264169, -0.109422, 90.7982, 93.836)" id="use3980" style="fill: rgb(255, 221, 85); fill-opacity: 1;" x="0" y="0" width="1000" height="500" xlink:href="#be"/>
        <use transform="matrix(-0.055783, -0.28044, 0.28044, -0.055783, 90.7982, 93.836)" id="use3982" style="fill: rgb(255, 221, 85); fill-opacity: 1;" x="0" y="0" width="1000" height="500" xlink:href="#be"/>
        <use transform="matrix(0, -0.285934, 0.285934, 0, 90.7982, 93.836)" id="use3984" style="fill: rgb(255, 221, 85); fill-opacity: 1;" x="0" y="0" width="1000" height="500" xlink:href="#be"/>
        <use transform="matrix(0.055783, -0.28044, 0.28044, 0.055783, 90.7982, 93.836)" id="use3986" style="fill: rgb(255, 221, 85); fill-opacity: 1;" x="0" y="0" width="1000" height="500" xlink:href="#be"/>
        <use transform="matrix(0.109422, -0.264169, 0.264169, 0.109422, 90.7982, 93.836)" id="use3988" style="fill: rgb(255, 221, 85); fill-opacity: 1;" x="0" y="0" width="1000" height="500" xlink:href="#be"/>
        <use transform="matrix(0.158857, -0.237746, 0.237746, 0.158857, 90.7982, 93.836)" id="use3990" style="fill: rgb(255, 221, 85); fill-opacity: 1;" x="0" y="0" width="1000" height="500" xlink:href="#be"/>
        <use transform="matrix(0.202186, -0.202186, 0.202186, 0.202186, 90.7982, 93.836)" id="use3992" style="fill: rgb(255, 221, 85); fill-opacity: 1;" x="0" y="0" width="1000" height="500" xlink:href="#be"/>
        <circle sodipodi:ry="68.699997" sodipodi:rx="68.699997" sodipodi:cy="0" sodipodi:cx="0" cx="0" cy="0" r="68.699997" transform="matrix(0.280136, 0, 0, 0.280136, 90.7737, 93.8604)" id="circle3934" style="fill: rgb(255, 221, 85); fill-opacity: 1;"/>
        <use transform="matrix(0.285934, 0, 0, 0.285934, 90.7982, 93.836)" id="use3936" style="fill: rgb(255, 221, 85); fill-opacity: 1;" x="0" y="0" width="1000" height="500" xlink:href="#be"/>
        <use transform="matrix(-0.28044, 0.055783, -0.055783, -0.28044, 90.7982, 93.836)" id="use3966" style="fill: rgb(255, 221, 85); fill-opacity: 1;" x="0" y="0" width="1000" height="500" xlink:href="#be"/>
        <use transform="matrix(-0.285934, 0, 0, -0.285934, 90.7982, 93.836)" id="use3968" style="fill: rgb(255, 221, 85); fill-opacity: 1;" x="0" y="0" width="1000" height="500" xlink:href="#be"/>
        <use transform="matrix(-0.28044, -0.055783, 0.055783, -0.28044, 90.7982, 93.836)" id="use3970" style="fill: rgb(255, 221, 85); fill-opacity: 1;" x="0" y="0" width="1000" height="500" xlink:href="#be"/>
        <use transform="matrix(-0.264169, -0.109422, 0.109422, -0.264169, 90.7982, 93.836)" id="use3972" style="fill: rgb(255, 221, 85); fill-opacity: 1;" x="0" y="0" width="1000" height="500" xlink:href="#be"/>
        <use transform="matrix(0.237746, -0.158857, 0.158857, 0.237746, 90.7982, 93.836)" id="use3994" style="fill: rgb(255, 221, 85); fill-opacity: 1;" x="0" y="0" width="1000" height="500" xlink:href="#be"/>
        <use transform="matrix(0.264169, -0.109422, 0.109422, 0.264169, 90.7982, 93.836)" id="use3996" style="fill: rgb(255, 221, 85); fill-opacity: 1;" x="0" y="0" width="1000" height="500" xlink:href="#be"/>
        <use transform="matrix(0.28044, -0.055783, 0.055783, 0.28044, 90.7982, 93.836)" id="use3998" style="fill: rgb(255, 221, 85); fill-opacity: 1;" x="0" y="0" width="1000" height="500" xlink:href="#be"/>
      </g>
      <g transform="matrix(1.25992, 0, 0, 1.08847, -24.3466, -14.3824)" id="g2489">
        <path sodipodi:nodetypes="ccc" id="path3787" d="M 106.20626,144.71586 C 106.52996,147.1891 107.72685,147.65206 109.06622,147.78706 L 106.20626,144.71586 z" style="fill: rgb(85, 34, 0); fill-rule: evenodd; stroke: none; stroke-width: 1px; stroke-linecap: butt; stroke-linejoin: miter; stroke-opacity: 1;"/>
        <path style="fill: rgb(85, 34, 0); fill-rule: evenodd; stroke: none; stroke-width: 1px; stroke-linecap: butt; stroke-linejoin: miter; stroke-opacity: 1;" d="M 32.047124,91.827442 L 31.231963,90.000005 L 31.273814,92.108412 C 31.298893,96.804881 32.756837,101.18259 34.729542,105.45448 C 32.565071,103.24149 30.943936,100.47817 29.171378,97.643516 L 28.238397,95.944291 L 28.325571,97.924486 C 28.687874,102.2315 29.980601,106.35782 32.554608,110.31525 C 30.811468,108.85168 29.266836,107.3544 27.890584,105.81974 L 26.7612,104.44255 L 27.093109,106.21309 C 28.380267,111.36596 31.059004,115.24658 33.762905,117.59237 L 30.162181,116.77756 L 29.049869,116.51924 L 29.799693,117.62047 C 32.051454,120.74778 36.163475,124.19208 41.496002,125.99336 L 37.556955,126.83627 L 36.506593,127.00771 L 37.508624,127.79157 C 39.535816,129.15753 42.487942,130.39597 45.870035,130.48888 L 43.646769,132.28709 L 42.950309,132.82167 L 43.743433,133.1019 C 46.316327,133.87715 49.65322,134.51639 52.926486,134.16958 L 51.259037,135.74301 L 50.776754,136.20706 L 51.379866,136.50163 C 53.454185,137.34514 56.126673,137.76824 58.992134,137.62551 L 57.663008,138.80559 L 57.108564,139.27755 L 58.502726,139.64421 C 61.536487,140.88298 64.733446,141.36277 68.04225,141.32241 L 66.725231,142.51439 C 65.471116,143.68345 64.246093,145.33995 64.816122,147.09419 C 62.596585,149.10978 61.949659,151.17615 63.03313,153.29841 C 68.990574,148.18088 76.735354,145.24016 83.931372,146.92561 C 80.239615,150.05632 77.088448,152.86385 73.095488,155.56799 C 75.132425,156.0799 76.895705,156.68372 78.82424,155.72101 C 78.951858,156.4756 79.242016,156.7704 79.780717,157.22012 C 80.857062,156.87819 81.606481,156.52185 82.353223,155.60423 C 82.674074,156.40429 83.143491,157.23625 83.830312,157.92362 C 84.745272,157.51388 85.494766,156.56847 86.202969,155.80426 C 86.685926,156.53532 87.559229,157.89292 89.023946,158.67966 C 89.923367,158.44052 90.710755,157.03323 91.519473,156.16952 C 92.348505,157.34048 93.238434,158.496 94.518536,159.14843 C 95.609245,158.63645 96.325187,157.1814 96.956807,156.08522 C 97.901056,157.48067 99.198549,158.70758 101.05923,159.25062 C 101.69405,158.31581 101.99157,156.90725 102.17009,155.54804 C 103.63425,157.16707 105.32121,158.13613 107.60902,158.58474 C 108.2809,157.58995 108.49082,156.62596 108.62895,155.4109 C 111.01809,156.91592 113.01901,157.32867 115.68338,156.91367 C 115.60414,155.71729 115.91716,155.15101 115.28811,153.95465 C 118.36951,155.18439 122.12741,155.07738 125.66504,152.46906 C 118.73017,150.37243 114.07453,147.87325 107.85564,143.69446 C 110.53791,143.83627 113.09535,143.52819 115.37125,142.20532 L 116.09933,141.76684 L 115.49208,141.36241 C 115.11163,141.08312 114.74433,140.7988 114.40461,140.5195 C 117.86238,141.04479 121.48222,140.37267 123.22517,139.5642 L 123.81952,139.25884 L 123.2735,138.80559 L 121.94438,137.62551 C 124.80985,137.76824 127.48233,137.34514 129.55665,136.50163 L 130.19468,136.21537 L 129.67748,135.74301 L 128.01003,134.16958 C 131.28329,134.51639 134.59603,133.87715 137.16891,133.1019 L 137.90079,132.79292 L 137.28974,132.28709 L 135.06648,130.48888 C 138.44857,130.39597 141.37653,129.15753 143.40372,127.79157 L 144.32528,127.04337 L 143.37956,126.83627 L 139.44051,125.99336 C 144.77305,124.19208 148.88506,120.74778 151.13682,117.62047 L 151.90854,116.46348 L 150.77433,116.77756 L 147.17361,117.59237 C 149.87751,115.24658 152.55624,111.36596 153.8434,106.21309 L 154.15702,104.55385 L 153.02176,105.81974 C 151.64552,107.3544 150.12504,108.85168 148.3819,110.31525 C 150.95591,106.35782 152.24864,102.2315 152.61094,97.924486 L 152.7024,95.963496 L 151.76513,97.643516 C 149.99258,100.47817 148.37144,103.24149 146.20697,105.45448 C 148.17968,101.18259 149.63762,96.804881 149.6627,92.108412 L 149.5864,90.103765 L 148.88939,91.827442 C 147.29407,95.386928 145.23211,98.138373 143.11373,100.76228 C 143.35475,97.719638 143.33849,94.310905 142.18114,91.553448 L 141.8571,92.670351 C 139.21042,102.04811 133.82816,110.41078 125.7626,116.52468 C 115.59808,123.70004 104.78865,126.67986 90.601168,130.46078 L 90.335342,130.46078 C 76.147862,126.67986 65.338431,123.70004 55.173917,116.52468 C 47.108351,110.41078 41.726092,102.04811 39.079409,92.670351 L 38.603931,90.988786 L 38.209435,92.754642 C 37.689044,95.287247 37.482153,98.212055 37.822781,100.76228 C 35.704407,98.138373 33.642454,95.386928 32.047124,91.827442 z" id="path3698" sodipodi:nodetypes="ccccccccccccccccccccccccccccccccccccccccccccccccccccccccccccccccccccccccccccccccccccccccccccccccccccc"/>
        <path style="fill: rgb(255, 212, 42); fill-rule: evenodd; stroke: none; stroke-width: 1px; stroke-linecap: butt; stroke-linejoin: miter; stroke-opacity: 1;" d="M 68.535363,145.11697 C 69.959111,145.61856 70.219771,144.54407 69.871758,143.66148 C 69.387697,144.06438 68.912491,144.48615 68.535363,145.11697 z" id="path3709" sodipodi:nodetypes="ccc"/>
        <g id="g2519" style="fill: rgb(255, 221, 85); fill-opacity: 1;">
          <path style="fill: rgb(255, 221, 85); fill-opacity: 1; fill-rule: evenodd; stroke: none; stroke-width: 1px; stroke-linecap: butt; stroke-linejoin: miter; stroke-opacity: 1;" d="M 65.501074,146.69299 C 64.962378,144.28556 68.903196,141.42938 74.178722,138.60501 C 83.853587,133.32596 94.299061,130.51263 104.77615,127.51355 C 118.32853,123.24365 134.20813,116.37453 141.46812,96.80451 C 140.78055,107.3061 137.21653,110.60085 131.50266,114.91689 L 134.09188,115.0319 C 131.37536,118.85278 127.86052,120.19846 124.33717,121.51776 L 128.93926,122.63291 C 125.35254,124.19823 121.48526,124.94809 117.34802,124.91321 L 121.23614,126.83346 C 117.98278,128.4355 114.31726,128.69577 110.61263,128.82872 L 114.39323,130.78398 C 99.528891,131.48162 85.770539,134.0464 71.50485,141.74599 C 70.180113,142.43418 68.959059,143.2627 67.932578,144.53445 C 67.17088,145.66825 66.903796,146.60151 65.501074,146.69299 z" id="path3703" sodipodi:nodetypes="ccccccccccccccc"/>
          <path style="fill: rgb(255, 221, 85); fill-opacity: 1; fill-rule: evenodd; stroke: none; stroke-width: 1px; stroke-linecap: butt; stroke-linejoin: miter; stroke-opacity: 1;" d="M 88.397961,131.13231 C 84.352649,129.85695 80.258235,128.71196 76.158983,127.53855 C 62.606606,123.26865 46.727001,116.39954 39.467015,96.829513 C 40.154588,107.3311 43.718602,110.62586 49.432471,114.94189 L 46.84326,115.05691 C 49.559774,118.87778 53.074613,120.22346 56.597967,121.54277 L 51.995877,122.65792 C 55.582596,124.22324 59.449871,124.97309 63.587117,124.93821 L 59.699001,126.85846 C 62.952361,128.4605 66.61788,128.72078 70.322505,128.85373 L 66.54191,130.80898 C 71.368785,131.29245 76.195359,131.77316 81.051326,132.52724 C 81.989104,132.64202 82.922502,132.77968 83.851806,132.93842 L 88.397961,131.13231 z" id="path3707" sodipodi:nodetypes="cccccccccccccc"/>
          <path style="fill: rgb(255, 221, 85); fill-opacity: 1; fill-rule: evenodd; stroke: none; stroke-width: 1px; stroke-linecap: butt; stroke-linejoin: miter; stroke-opacity: 1;" d="M 82.754946,137.54487 C 98.384811,132.27366 107.46678,133.11495 118.1093,131.51408 L 113.64485,129.50381 C 118.18318,129.37585 121.29554,128.49159 123.6318,126.92348 L 120.52647,125.60331 C 125.08931,125.50411 129.96403,123.82289 131.27041,122.37287 L 127.0038,121.38275 C 131.5994,119.59239 134.42861,116.72811 136.27679,114.11179 L 133.48973,114.11179 C 137.47898,112.08521 141.01383,109.27838 143.30895,106.47079 C 142.74067,109.3703 140.85609,112.6781 136.56066,115.36195 C 139.85064,115.24217 142.49905,113.85146 144.16055,112.85162 C 143.08185,115.29244 139.75849,117.74853 136.12196,118.70239 C 138.79557,119.34941 141.65059,118.76239 143.54981,118.1801 C 140.84682,120.53557 136.65243,121.79725 132.4833,122.28286 L 136.82732,124.15312 C 135.15026,124.88678 132.8526,125.9069 128.43174,125.6633 L 132.43169,127.73358 C 131.17241,128.30047 128.54264,129.71732 124.10491,129.18377 L 127.06401,131.12403 C 125.72646,132.20199 122.07544,132.95362 118.01468,132.65423 L 121.37808,135.14455 C 118.77131,135.62452 115.76645,135.57609 113.17174,135.13456 C 114.09089,136.07497 115.06814,137.00188 115.5459,138.04493 C 112.40856,137.91643 109.44648,137.53321 107.03849,136.34471 C 107.6379,137.50487 108.04476,138.66502 108.27718,139.82517 C 102.22017,136.19863 95.172584,134.59749 82.754946,137.54487 z" id="path3733" sodipodi:nodetypes="ccccccccccccccccccccccccccc"/>
          <path sodipodi:nodetypes="ccccccccccccccccccccccccccc" id="path3735" d="M 82.525208,133.70005 C 75.085933,132.46595 69.332801,132.52474 62.613985,131.51408 L 67.078434,129.50381 C 62.540103,129.37585 59.427741,128.49159 57.091479,126.92348 L 60.196813,125.60331 C 55.633976,125.50411 50.759259,123.82289 49.452876,122.37287 L 53.719478,121.38275 C 49.123887,119.59239 46.294679,116.72811 44.446492,114.11179 L 47.233554,114.11179 C 43.78756,112.06741 40.493554,109.58125 37.414331,106.47079 C 37.982613,109.3703 39.8672,112.6781 44.162626,115.36195 C 40.872641,115.24217 38.224234,113.85146 36.562731,112.85162 C 37.641436,115.29244 40.964797,117.74853 44.601324,118.70239 C 41.927714,119.34941 39.588816,118.52236 37.173476,118.1801 C 39.876464,120.53557 44.070857,121.79725 48.239986,122.28286 L 43.895965,124.15312 C 46.089149,124.88678 47.870684,125.9069 52.291546,125.6633 L 48.291597,127.73358 C 50.118611,128.30047 51.870977,129.89734 56.618368,129.18377 L 53.659268,131.12403 C 54.996823,132.20199 58.647842,132.95362 62.7086,132.65423 L 59.345205,135.14455 C 61.95197,135.62452 64.956835,135.57609 67.551545,135.13456 C 66.632396,136.07497 65.655142,137.00188 65.177383,138.04493 C 68.314724,137.91643 71.276802,137.53321 73.684795,136.34471 C 73.32176,137.04736 72.994947,137.58999 72.769149,138.29264 C 75.928679,136.43586 79.09232,135.02712 82.525208,133.70005 z" style="fill: rgb(255, 221, 85); fill-opacity: 1; fill-rule: evenodd; stroke: none; stroke-width: 1px; stroke-linecap: butt; stroke-linejoin: miter; stroke-opacity: 1;"/>
        </g>
        <g id="g2525" style="fill: rgb(240, 183, 6); fill-opacity: 1;">
          <path sodipodi:nodetypes="ccccccccccccccccccccccccccccccccccccccccccccccccccccccccc" id="path3743" d="M 148.84106,93.906618 C 147.09159,97.722885 144.77497,100.8079 142.17126,103.3472 C 142.64674,100.74526 142.70329,98.30464 142.36459,95.170982 C 142.14234,99.452477 141.95147,105.57564 138.42554,109.61283 C 140.64926,107.89326 142.77455,106.04969 144.58785,103.85295 C 144.20343,107.43094 143.14597,111.00459 140.23799,113.5745 C 143.24727,112.45596 144.58717,111.617 145.84448,110.48383 C 145.34422,112.98903 143.26436,116.32886 140.60048,117.67666 C 142.37818,117.47973 144.22776,117.45271 145.96531,116.21562 C 143.62986,120.48867 140.37294,121.85147 135.64646,122.67792 L 139.05386,123.8299 C 136.78233,125.50774 135.03033,126.16934 131.65908,126.63959 L 135.04231,127.67918 C 132.54268,128.98954 130.03846,129.97942 127.23672,130.23601 L 129.43582,131.44418 C 127.4479,132.63558 124.6798,133.39787 120.73608,133.52335 L 123.73266,135.09678 C 121.79924,136.11475 119.26669,136.64946 115.32291,136.24876 L 117.86034,138.41223 C 115.82463,139.28378 113.53805,138.86233 111.26304,138.41223 L 108.53229,137.766 L 109.47476,141.39051 C 106.6882,140.03327 103.41377,138.36006 100.14671,137.65361 C 96.477905,137.14335 93.785148,136.93539 90.746163,137.20406 C 83.852496,138.06911 77.152617,139.15595 70.640111,143.3292 C 71.413943,144.87445 70.208791,146.83145 68.078523,145.88602 C 67.238716,147.1945 66.405074,147.542 65.565266,147.62804 C 63.325088,149.42137 63.219329,150.5159 63.245337,151.39303 C 64.955017,149.08153 67.325289,148.07583 69.625142,146.95371 C 67.602025,148.55036 64.899547,150.00577 63.897817,151.81448 C 66.292889,149.65034 69.527703,147.56917 74.023341,146.27938 C 77.848749,145.16 82.798424,145.26344 89.465369,147.23468 L 88.933719,146.1108 C 91.777852,147.17581 93.192423,147.29969 95.168528,147.12229 C 94.919332,146.22272 94.548392,145.58842 94.105227,145.1274 C 96.112785,146.10648 98.370133,145.98625 100.63003,145.88602 L 98.986747,143.86304 C 101.91695,144.19311 103.89977,144.42299 106.57485,143.80685 L 103.50578,142.09293 C 107.89282,142.97323 110.79215,142.9086 114.52544,141.61528 L 112.61633,140.37902 L 110.80056,139.03358 C 113.71502,139.85035 118.55782,140.14282 122.3552,138.94607 L 119.43112,136.72641 C 122.80915,136.72503 126.55679,136.65076 128.68667,135.9116 L 125.78676,133.21429 C 129.0022,133.30216 132.97852,133.32986 136.25061,132.45567 L 132.74655,129.73026 C 136.18879,129.60357 139.59669,129.18726 142.29209,127.5106 L 136.3956,126.19004 C 141.26826,124.2266 146.59815,122.07211 149.97686,117.95763 L 144.03204,119.33438 C 147.89991,116.25556 151.25344,112.20833 152.82843,107.25268 C 150.47721,110.06984 148.31982,111.65425 145.91698,112.78779 C 148.52613,109.08937 150.9116,104.94331 151.69264,99.441722 C 150.29609,102.29628 147.45451,106.06495 144.51536,107.44936 C 146.25614,103.99302 148.23517,99.265768 148.84106,93.906618 z" style="fill: rgb(240, 183, 6); fill-opacity: 1; fill-rule: evenodd; stroke: none; stroke-width: 1px; stroke-linecap: butt; stroke-linejoin: miter; stroke-opacity: 1;"/>
          <path sodipodi:nodetypes="ccccccccccccccccccccccccccccccccccccc" id="path3745" d="M 38.555475,95.133733 C 38.777725,99.415228 38.963543,105.52845 42.489472,109.56563 C 40.265758,107.84606 38.143719,106.00828 36.330416,103.81154 C 36.714844,107.38953 37.775059,110.96291 40.683044,113.53282 C 37.673763,112.41428 36.331823,111.56558 35.074515,110.43241 C 35.574776,112.93761 37.657864,116.28556 40.321753,117.63336 C 38.544054,117.43643 36.700244,117.41359 34.962694,116.1765 C 37.298143,120.44955 40.532836,121.81423 45.25932,122.64068 L 41.852922,123.79418 C 44.12445,125.47202 45.890882,126.14428 49.262134,126.61454 L 45.878672,127.63468 C 48.378303,128.94503 50.878962,129.95177 53.680709,130.20835 L 51.472856,131.41517 C 53.460772,132.60657 56.240132,133.36663 60.18385,133.49212 L 57.181738,135.04565 C 59.115151,136.06362 61.656486,136.60984 65.600258,136.20914 L 63.065526,138.37609 C 65.101233,139.24765 69.848452,138.64617 72.123468,138.19607 L 71.82229,138.84234 L 70.224464,139.91476 C 65.777831,141.17193 60.534392,139.70458 58.569535,138.91616 L 61.494223,136.6892 C 58.116197,136.68783 54.359714,136.60159 52.229833,135.86242 L 55.137323,133.18873 C 51.921886,133.27661 47.929273,133.29283 44.657183,132.41864 L 48.16681,129.67828 C 44.724569,129.55158 41.322555,129.14465 38.627153,127.46799 L 44.513811,126.15448 C 39.641156,124.19104 34.307043,122.03454 30.928337,117.92007 L 36.885242,119.29358 C 33.017372,116.21476 29.664672,112.15764 28.089672,107.20199 C 30.440889,110.01915 32.585664,111.61918 34.988499,112.75271 C 32.379352,109.0543 30.014772,104.89589 29.233737,99.394294 C 30.63028,102.24885 33.471544,106.02427 36.410701,107.40869 C 34.669919,103.95234 32.689767,99.219382 32.083878,93.860233 C 33.833345,97.6765 36.149608,100.77884 38.753319,103.31814 C 38.277842,100.7162 38.216773,98.267391 38.555475,95.133733 z" style="fill: rgb(240, 183, 6); fill-opacity: 1; fill-rule: evenodd; stroke: none; stroke-width: 1px; stroke-linecap: butt; stroke-linejoin: miter; stroke-opacity: 1;"/>
          <path sodipodi:nodetypes="cccccccccccccccccccccccccc" id="path3759" d="M 84.948464,147.20614 C 81.866132,150.30995 78.582651,152.75985 74.952905,155.22719 C 76.868413,155.42896 78.691007,155.18 79.684022,153.747 C 79.38878,154.69259 79.428908,155.39732 79.867537,156.41402 C 81.213336,155.60541 81.846085,154.84053 82.815162,153.42696 C 82.950693,154.66794 82.92269,155.87894 83.967833,156.76739 C 85.37553,155.90887 85.966382,154.4683 86.548443,153.26694 C 86.675439,154.70053 87.448135,156.40945 89.043031,157.48749 C 90.327931,156.66968 91.108561,154.77823 91.658049,153.38695 C 92.077414,155.48094 93.279056,156.96181 94.479516,157.92755 C 95.861831,156.9509 96.176512,155.09358 96.61282,153.56698 C 97.335941,155.16641 98.311269,156.81871 100.72459,158.20759 C 101.336,156.77604 101.49328,155.15187 101.30953,153.50697 C 102.91073,154.99423 104.32816,156.7459 107.30802,157.78753 C 107.87729,156.34255 107.78373,154.84252 107.503,153.32695 C 109.62333,154.78077 111.59465,156.5612 114.86634,156.14065 C 114.58276,154.40485 114.38235,153.76922 113.26636,152.37348 C 115.77966,153.43859 120.51657,154.44003 123.39381,152.61685 C 116.10722,150.16922 111.86741,148.41621 107.5288,144.61581 C 105.29958,145.53911 102.03566,145.21772 100.63858,144.86584 L 102.20414,146.50604 C 100.57892,147.05678 97.775412,147.03765 95.787024,146.60606 L 96.285942,147.96624 C 94.019964,148.29575 92.517429,148.42636 90.115418,147.40616 L 90.746163,148.66633 C 88.356736,147.76919 86.51149,147.38716 84.948464,147.20614 z" style="fill: rgb(240, 183, 6); fill-opacity: 1; fill-rule: evenodd; stroke: none; stroke-width: 1px; stroke-linecap: butt; stroke-linejoin: miter; stroke-opacity: 1;"/>
        </g>
        <path sodipodi:nodetypes="ccccc" id="path3783" d="M 107.85958,149.65756 C 108.88295,151.40368 111.66975,150.96204 112.50052,150.3838 C 112.26416,149.59152 112.17526,148.77527 111.39373,148.24813 C 111.58607,148.8845 111.61762,149.29417 111.59433,149.93054 C 110.41104,150.01087 109.32273,150.10859 107.85958,149.65756 z" style="fill: rgb(85, 34, 0); fill-rule: evenodd; stroke: none; stroke-width: 1px; stroke-linecap: butt; stroke-linejoin: miter; stroke-opacity: 1;"/>
        <path style="fill: rgb(85, 34, 0); fill-rule: evenodd; stroke: none; stroke-width: 1px; stroke-linecap: butt; stroke-linejoin: miter; stroke-opacity: 1;" d="M 82.785238,140.637 C 81.92039,144.0272 79.78897,146.03923 77.245714,146.03148 L 73.358768,146.88156 C 77.159993,144.8865 80.454276,144.74939 82.785238,140.637 z" id="path3846" sodipodi:nodetypes="cccc"/>
        <path sodipodi:nodetypes="ccc" id="path3848" d="M 89.035197,139.84258 C 88.333611,141.51894 87.53787,142.92738 85.567164,140.99236 C 86.330552,141.18532 87.809653,140.94847 89.035197,139.84258 z" style="fill: rgb(85, 34, 0); fill-rule: evenodd; stroke: none; stroke-width: 1px; stroke-linecap: butt; stroke-linejoin: miter; stroke-opacity: 1;"/>
        <path style="fill: rgb(85, 34, 0); fill-rule: evenodd; stroke: none; stroke-width: 1px; stroke-linecap: butt; stroke-linejoin: miter; stroke-opacity: 1;" d="M 92.398274,139.45441 C 91.729532,142.13646 89.775538,142.50193 88.192377,141.25026 C 88.965325,141.47201 91.128964,140.77737 92.398274,139.45441 z" id="path3850" sodipodi:nodetypes="ccc"/>
        <path sodipodi:nodetypes="ccc" id="path3852" d="M 90.505306,141.8261 C 89.583388,144.21801 88.449845,145.12088 86.876721,142.93084 C 87.61205,143.32693 89.123582,143.21914 90.505306,141.8261 z" style="fill: rgb(85, 34, 0); fill-rule: evenodd; stroke: none; stroke-width: 1px; stroke-linecap: butt; stroke-linejoin: miter; stroke-opacity: 1;"/>
        <path style="fill: rgb(85, 34, 0); fill-rule: evenodd; stroke: none; stroke-width: 1px; stroke-linecap: butt; stroke-linejoin: miter; stroke-opacity: 1;" d="M 86.584054,141.41626 C 85.6177,143.65054 84.451769,144.64064 82.736976,142.20901 C 83.611181,142.58149 84.923768,142.85758 86.584054,141.41626 z" id="path3854" sodipodi:nodetypes="ccc"/>
        <path style="fill: rgb(85, 34, 0); fill-rule: evenodd; stroke: none; stroke-width: 1px; stroke-linecap: butt; stroke-linejoin: miter; stroke-opacity: 1;" d="M 95.94263,142.5456 C 94.733212,144.17984 93.549157,145.94644 91.571958,143.57333 C 92.434352,143.93605 94.24176,143.8325 95.94263,142.5456 z" id="path3856" sodipodi:nodetypes="ccc"/>
        <path sodipodi:nodetypes="ccc" id="path3858" d="M 97.428617,139.68155 C 96.128482,141.10848 94.918734,143.16831 92.993168,140.21529 C 93.821517,140.67285 95.629097,140.77208 97.428617,139.68155 z" style="fill: rgb(85, 34, 0); fill-rule: evenodd; stroke: none; stroke-width: 1px; stroke-linecap: butt; stroke-linejoin: miter; stroke-opacity: 1;"/>
        <path sodipodi:nodetypes="ccc" id="path3860" d="M 92.238036,143.80395 C 91.089237,145.56864 89.894607,147.12019 87.845993,144.70012 C 88.700052,145.08861 90.509155,145.03935 92.238036,143.80395 z" style="fill: rgb(85, 34, 0); fill-rule: evenodd; stroke: none; stroke-width: 1px; stroke-linecap: butt; stroke-linejoin: miter; stroke-opacity: 1;"/>
        <path sodipodi:nodetypes="ccc" id="path3862" d="M 85.488449,143.21033 C 84.562562,144.55616 83.84919,146.5197 81.693641,144.29131 C 82.487823,144.45332 83.658907,144.40591 85.488449,143.21033 z" style="fill: rgb(85, 34, 0); fill-rule: evenodd; stroke: none; stroke-width: 1px; stroke-linecap: butt; stroke-linejoin: miter; stroke-opacity: 1;"/>
        <path sodipodi:nodetypes="ccc" id="path3864" d="M 88.328992,143.51765 C 87.277687,145.6471 86.129801,146.68171 84.713399,144.67241 C 85.451886,144.92 86.931079,144.67759 88.328992,143.51765 z" style="fill: rgb(85, 34, 0); fill-rule: evenodd; stroke: none; stroke-width: 1px; stroke-linecap: butt; stroke-linejoin: miter; stroke-opacity: 1;"/>
        <path style="fill: rgb(85, 34, 0); fill-rule: evenodd; stroke: none; stroke-width: 1px; stroke-linecap: butt; stroke-linejoin: miter; stroke-opacity: 1;" d="M 101.5748,138.26136 C 100.27466,139.68829 99.064913,141.74813 97.139347,138.7951 C 97.967696,139.25266 99.775275,139.35189 101.5748,138.26136 z" id="path3930" sodipodi:nodetypes="ccc"/>
        <path sodipodi:nodetypes="ccc" id="path3932" d="M 94.684081,136.97411 C 93.833279,139.5855 91.860424,139.7684 90.36828,138.37375 C 91.12353,138.66655 93.327966,138.175 94.684081,136.97411 z" style="fill: rgb(85, 34, 0); fill-rule: evenodd; stroke: none; stroke-width: 1px; stroke-linecap: butt; stroke-linejoin: miter; stroke-opacity: 1;"/>
        <path style="fill: rgb(85, 34, 0); fill-rule: evenodd; stroke: none; stroke-width: 1px; stroke-linecap: butt; stroke-linejoin: miter; stroke-opacity: 1;" d="M 89.163389,137.72231 C 88.461803,139.39867 87.666062,140.80711 85.695357,138.87208 C 86.458745,139.06505 87.937845,138.8282 89.163389,137.72231 z" id="path3934" sodipodi:nodetypes="ccc"/>
        <path style="fill: rgb(85, 34, 0); fill-rule: evenodd; stroke: none; stroke-width: 1px; stroke-linecap: butt; stroke-linejoin: miter; stroke-opacity: 1;" d="M 103.24889,151.13776 C 104.49987,152.88387 107.90653,152.44223 108.92208,151.864 C 108.63314,151.07172 108.52447,150.25547 107.56911,149.72832 C 107.80423,150.36469 107.8428,150.77437 107.81433,151.41073 C 106.36785,151.49107 105.03749,151.58878 103.24889,151.13776 z" id="path4011" sodipodi:nodetypes="ccccc"/>
        <path sodipodi:nodetypes="ccccc" id="path4013" d="M 98.192728,151.43573 C 98.584007,153.48848 102.28787,153.72484 103.39515,153.45813 C 103.42223,152.68724 103.8699,151.78517 103.05716,150.99857 C 103.1489,151.6829 102.85786,152.01086 102.69428,152.61904 C 101.276,152.27897 99.828843,152.38934 98.192728,151.43573 z" style="fill: rgb(85, 34, 0); fill-rule: evenodd; stroke: none; stroke-width: 1px; stroke-linecap: butt; stroke-linejoin: miter; stroke-opacity: 1;"/>
        <path style="fill: rgb(85, 34, 0); fill-rule: evenodd; stroke: none; stroke-width: 1px; stroke-linecap: butt; stroke-linejoin: miter; stroke-opacity: 1;" d="M 93.510978,151.05828 C 93.569483,153.41841 96.267461,153.80142 97.738215,153.91979 C 98.191963,153.24668 98.701125,152.37103 98.021031,151.42952 C 98.007096,152.12192 97.670701,152.38478 97.417078,152.94967 C 96.348271,152.80302 94.631911,152.37366 93.510978,151.05828 z" id="path4015" sodipodi:nodetypes="ccccc"/>
        <path sodipodi:nodetypes="ccccc" id="path4017" d="M 88.823116,151.33558 C 88.821454,153.32331 90.843265,153.79908 92.310357,153.96806 C 92.964567,153.47089 93.771082,152.87988 93.459362,151.5153 C 93.22134,152.20693 92.442558,152.72477 92.014082,152.9873 C 90.94948,152.80391 89.887099,152.52898 88.823116,151.33558 z" style="fill: rgb(85, 34, 0); fill-rule: evenodd; stroke: none; stroke-width: 1px; stroke-linecap: butt; stroke-linejoin: miter; stroke-opacity: 1;"/>
        <path style="fill: rgb(85, 34, 0); fill-rule: evenodd; stroke: none; stroke-width: 1px; stroke-linecap: butt; stroke-linejoin: miter; stroke-opacity: 1;" d="M 88.848955,151.30891 C 88.850617,153.29664 87.356397,153.45237 85.889306,153.62135 C 85.235096,153.12418 84.474458,152.29314 84.786178,150.92856 C 85.0242,151.62019 85.757105,152.37806 86.185581,152.64059 C 87.250182,152.4572 87.784972,152.50232 88.848955,151.30891 z" id="path4019" sodipodi:nodetypes="ccccc"/>
        <path sodipodi:nodetypes="ccccc" id="path4021" d="M 84.71998,151.04221 C 84.492255,152.76324 83.709136,153.159 82.242045,153.32798 C 81.587835,152.83081 81.354789,152.2398 81.666508,150.87522 C 81.904531,151.56684 82.109844,152.08469 82.53832,152.34722 C 83.212962,152.16383 84.000079,151.86224 84.71998,151.04221 z" style="fill: rgb(85, 34, 0); fill-rule: evenodd; stroke: none; stroke-width: 1px; stroke-linecap: butt; stroke-linejoin: miter; stroke-opacity: 1;"/>
        <path style="fill: rgb(85, 34, 0); fill-rule: evenodd; stroke: none; stroke-width: 1px; stroke-linecap: butt; stroke-linejoin: miter; stroke-opacity: 1;" d="M 86.678239,148.74543 C 86.269647,150.42065 85.771661,150.72774 84.297846,150.685 C 83.701385,150.09779 83.762215,149.66456 84.216339,148.35511 C 84.37916,149.07559 84.298571,149.43225 84.69592,149.75423 C 85.384867,149.669 85.876829,149.45594 86.678239,148.74543 z" id="path4023" sodipodi:nodetypes="ccccc"/>
        <path sodipodi:nodetypes="ccccc" id="path4025" d="M 90.138104,148.48286 C 90.160816,150.05361 89.537186,150.52273 88.185896,151.2081 C 87.431885,150.96896 86.763554,150.02345 86.699216,148.61355 C 87.108647,149.18654 87.731234,150.07235 88.208387,150.16894 C 88.782924,149.90714 89.280789,149.7055 90.138104,148.48286 z" style="fill: rgb(85, 34, 0); fill-rule: evenodd; stroke: none; stroke-width: 1px; stroke-linecap: butt; stroke-linejoin: miter; stroke-opacity: 1;"/>
        <path style="fill: rgb(85, 34, 0); fill-rule: evenodd; stroke: none; stroke-width: 1px; stroke-linecap: butt; stroke-linejoin: miter; stroke-opacity: 1;" d="M 94.748606,148.2695 C 94.663742,149.30685 94.647491,150.016 93.124958,150.80806 C 92.1346,150.56891 90.247473,150.05013 90.231784,148.40019 C 90.746163,149.23988 92.275455,149.69897 92.902173,149.79556 C 93.656801,149.53376 93.622562,149.49215 94.748606,148.2695 z" id="path4027" sodipodi:nodetypes="ccccc"/>
        <path sodipodi:nodetypes="ccccc" id="path4029" d="M 99.313416,147.68275 C 99.389123,148.69344 99.120553,149.90932 97.598015,150.70138 C 96.607657,150.46223 94.72053,149.94345 94.704841,148.29352 C 95.21922,149.13321 96.748512,149.59229 97.37523,149.68888 C 98.129858,149.42708 98.554397,148.9054 99.313416,147.68275 z" style="fill: rgb(85, 34, 0); fill-rule: evenodd; stroke: none; stroke-width: 1px; stroke-linecap: butt; stroke-linejoin: miter; stroke-opacity: 1;"/>
        <path style="fill: rgb(85, 34, 0); fill-rule: evenodd; stroke: none; stroke-width: 1px; stroke-linecap: butt; stroke-linejoin: miter; stroke-opacity: 1;" d="M 102.43641,146.71478 C 102.68028,147.68724 102.84028,148.25974 101.83935,149.32685 C 101.04883,149.28424 99.53084,149.14143 99.214031,147.53308 C 99.756863,148.25397 100.99417,148.40747 101.4843,148.38096 C 102.00458,147.97978 102.09043,148.0552 102.43641,146.71478 z" id="path4031" sodipodi:nodetypes="ccccc"/>
        <path sodipodi:nodetypes="ccccc" id="path4033" d="M 105.54912,145.00866 C 105.99385,145.87969 106.27158,146.38771 105.53114,147.71132 C 104.75646,147.89925 103.2558,148.20108 102.60403,146.73539 C 103.28434,147.27612 104.51549,147.06603 104.98444,146.89826 C 105.40224,146.35891 105.50156,146.40704 105.54912,145.00866 z" style="fill: rgb(85, 34, 0); fill-rule: evenodd; stroke: none; stroke-width: 1px; stroke-linecap: butt; stroke-linejoin: miter; stroke-opacity: 1;"/>
      </g>
    </g>
  </g>
</svg>